<mxfile host="app.diagrams.net" agent="Mozilla/5.0 (Macintosh; Intel Mac OS X 10_15_7) AppleWebKit/537.36 (KHTML, like Gecko) Chrome/132.0.0.0 Safari/537.36" border="50" scale="3" compressed="false" locked="false" version="26.0.10">
  <diagram name="Blank" id="YmL12bMKpDGza6XwsDPr">
    <mxGraphModel dx="1242" dy="785" grid="0" gridSize="10" guides="1" tooltips="1" connect="1" arrows="1" fold="1" page="1" pageScale="1" pageWidth="827" pageHeight="1169" background="none" math="1" shadow="0">
      <root>
        <mxCell id="X5NqExCQtvZxIxQ7pmgY-0" />
        <mxCell id="1" parent="X5NqExCQtvZxIxQ7pmgY-0" />
        <mxCell id="LcjDTUEJRV6H5ETwgrj8-4" value="" style="edgeStyle=orthogonalEdgeStyle;rounded=0;orthogonalLoop=1;jettySize=auto;html=1;" edge="1" parent="1" source="LcjDTUEJRV6H5ETwgrj8-2">
          <mxGeometry relative="1" as="geometry">
            <mxPoint x="406.5" y="288" as="targetPoint" />
          </mxGeometry>
        </mxCell>
        <mxCell id="LcjDTUEJRV6H5ETwgrj8-5" value="Yes" style="edgeLabel;html=1;align=center;verticalAlign=middle;resizable=0;points=[];" vertex="1" connectable="0" parent="LcjDTUEJRV6H5ETwgrj8-4">
          <mxGeometry x="-0.3292" y="1" relative="1" as="geometry">
            <mxPoint x="-2" as="offset" />
          </mxGeometry>
        </mxCell>
        <mxCell id="LcjDTUEJRV6H5ETwgrj8-2" value="Keep a record of Door&lt;div&gt;Counts the Duration&lt;/div&gt;&lt;div&gt;Of the work day.&lt;/div&gt;" style="rounded=0;whiteSpace=wrap;html=1;" vertex="1" parent="1">
          <mxGeometry x="330" y="94" width="153" height="114" as="geometry" />
        </mxCell>
        <mxCell id="LcjDTUEJRV6H5ETwgrj8-8" value="" style="edgeStyle=orthogonalEdgeStyle;rounded=0;orthogonalLoop=1;jettySize=auto;html=1;" edge="1" parent="1" source="LcjDTUEJRV6H5ETwgrj8-6" target="LcjDTUEJRV6H5ETwgrj8-7">
          <mxGeometry relative="1" as="geometry" />
        </mxCell>
        <mxCell id="LcjDTUEJRV6H5ETwgrj8-9" value="Yes" style="edgeLabel;html=1;align=center;verticalAlign=middle;resizable=0;points=[];" vertex="1" connectable="0" parent="LcjDTUEJRV6H5ETwgrj8-8">
          <mxGeometry x="0.025" y="-2" relative="1" as="geometry">
            <mxPoint as="offset" />
          </mxGeometry>
        </mxCell>
        <mxCell id="LcjDTUEJRV6H5ETwgrj8-11" value="" style="edgeStyle=orthogonalEdgeStyle;rounded=0;orthogonalLoop=1;jettySize=auto;html=1;" edge="1" parent="1" source="LcjDTUEJRV6H5ETwgrj8-6" target="LcjDTUEJRV6H5ETwgrj8-10">
          <mxGeometry relative="1" as="geometry" />
        </mxCell>
        <mxCell id="LcjDTUEJRV6H5ETwgrj8-12" value="No" style="edgeLabel;html=1;align=center;verticalAlign=middle;resizable=0;points=[];" vertex="1" connectable="0" parent="LcjDTUEJRV6H5ETwgrj8-11">
          <mxGeometry x="-0.25" y="3" relative="1" as="geometry">
            <mxPoint x="-4" as="offset" />
          </mxGeometry>
        </mxCell>
        <mxCell id="LcjDTUEJRV6H5ETwgrj8-6" value="Fill Out Door Count Form" style="rounded=0;whiteSpace=wrap;html=1;" vertex="1" parent="1">
          <mxGeometry x="330" y="288" width="153" height="114" as="geometry" />
        </mxCell>
        <mxCell id="LcjDTUEJRV6H5ETwgrj8-7" value="Complete!" style="rounded=0;whiteSpace=wrap;html=1;" vertex="1" parent="1">
          <mxGeometry x="563" y="288" width="153" height="114" as="geometry" />
        </mxCell>
        <mxCell id="LcjDTUEJRV6H5ETwgrj8-14" value="" style="edgeStyle=orthogonalEdgeStyle;rounded=0;orthogonalLoop=1;jettySize=auto;html=1;" edge="1" parent="1" source="LcjDTUEJRV6H5ETwgrj8-10" target="LcjDTUEJRV6H5ETwgrj8-13">
          <mxGeometry relative="1" as="geometry" />
        </mxCell>
        <mxCell id="LcjDTUEJRV6H5ETwgrj8-10" value="Automated email will&amp;nbsp;&lt;div&gt;be sent to the Neighborhood Place Email with the Door Count Form&lt;/div&gt;" style="rounded=0;whiteSpace=wrap;html=1;" vertex="1" parent="1">
          <mxGeometry x="330" y="482" width="153" height="114" as="geometry" />
        </mxCell>
        <mxCell id="LcjDTUEJRV6H5ETwgrj8-16" value="" style="edgeStyle=orthogonalEdgeStyle;rounded=0;orthogonalLoop=1;jettySize=auto;html=1;" edge="1" parent="1" source="LcjDTUEJRV6H5ETwgrj8-13" target="LcjDTUEJRV6H5ETwgrj8-15">
          <mxGeometry relative="1" as="geometry" />
        </mxCell>
        <mxCell id="LcjDTUEJRV6H5ETwgrj8-17" value="Yes" style="edgeLabel;html=1;align=center;verticalAlign=middle;resizable=0;points=[];" vertex="1" connectable="0" parent="LcjDTUEJRV6H5ETwgrj8-16">
          <mxGeometry x="0.075" relative="1" as="geometry">
            <mxPoint as="offset" />
          </mxGeometry>
        </mxCell>
        <mxCell id="LcjDTUEJRV6H5ETwgrj8-13" value="Fill out Door Counts from the day prior.&amp;nbsp;" style="rounded=0;whiteSpace=wrap;html=1;" vertex="1" parent="1">
          <mxGeometry x="330" y="676" width="153" height="114" as="geometry" />
        </mxCell>
        <mxCell id="LcjDTUEJRV6H5ETwgrj8-15" value="Complete!" style="rounded=0;whiteSpace=wrap;html=1;" vertex="1" parent="1">
          <mxGeometry x="97" y="676" width="153" height="114" as="geometry" />
        </mxCell>
        <mxCell id="LcjDTUEJRV6H5ETwgrj8-19" value="" style="curved=1;endArrow=classic;html=1;rounded=0;" edge="1" parent="1">
          <mxGeometry width="50" height="50" relative="1" as="geometry">
            <mxPoint x="151" y="650" as="sourcePoint" />
            <mxPoint x="304" y="152" as="targetPoint" />
            <Array as="points">
              <mxPoint x="21" y="380" />
              <mxPoint x="111" y="262" />
            </Array>
          </mxGeometry>
        </mxCell>
        <mxCell id="LcjDTUEJRV6H5ETwgrj8-21" value="Next Day" style="edgeLabel;html=1;align=center;verticalAlign=middle;resizable=0;points=[];" vertex="1" connectable="0" parent="LcjDTUEJRV6H5ETwgrj8-19">
          <mxGeometry x="0.043" y="-6" relative="1" as="geometry">
            <mxPoint as="offset" />
          </mxGeometry>
        </mxCell>
        <mxCell id="LcjDTUEJRV6H5ETwgrj8-22" value="&lt;h1 style=&quot;margin-top: 0px;&quot;&gt;Door Count Survey&lt;/h1&gt;" style="text;html=1;whiteSpace=wrap;overflow=hidden;rounded=0;" vertex="1" parent="1">
          <mxGeometry x="36" y="2" width="280" height="41" as="geometry" />
        </mxCell>
        <mxCell id="LcjDTUEJRV6H5ETwgrj8-24" value="" style="edgeStyle=orthogonalEdgeStyle;curved=1;rounded=0;orthogonalLoop=1;jettySize=auto;html=1;" edge="1" parent="1" source="LcjDTUEJRV6H5ETwgrj8-23" target="LcjDTUEJRV6H5ETwgrj8-2">
          <mxGeometry relative="1" as="geometry" />
        </mxCell>
        <mxCell id="LcjDTUEJRV6H5ETwgrj8-23" value="Start" style="shape=process;whiteSpace=wrap;html=1;backgroundOutline=1;" vertex="1" parent="1">
          <mxGeometry x="346.5" width="120" height="60" as="geometry" />
        </mxCell>
        <mxCell id="LcjDTUEJRV6H5ETwgrj8-25" value="" style="curved=1;endArrow=classic;html=1;rounded=0;" edge="1" parent="1">
          <mxGeometry width="50" height="50" relative="1" as="geometry">
            <mxPoint x="651" y="262" as="sourcePoint" />
            <mxPoint x="540" y="36" as="targetPoint" />
            <Array as="points">
              <mxPoint x="701" y="121" />
              <mxPoint x="651" y="71" />
            </Array>
          </mxGeometry>
        </mxCell>
        <mxCell id="LcjDTUEJRV6H5ETwgrj8-26" value="Next Day" style="edgeLabel;html=1;align=center;verticalAlign=middle;resizable=0;points=[];" vertex="1" connectable="0" parent="LcjDTUEJRV6H5ETwgrj8-25">
          <mxGeometry x="0.0119" y="4" relative="1" as="geometry">
            <mxPoint as="offset" />
          </mxGeometry>
        </mxCell>
      </root>
    </mxGraphModel>
  </diagram>
</mxfile>
